<?xml version="1.0" encoding="utf-8"?>
<!-- Generator: Adobe Illustrator 21.1.0, SVG Export Plug-In . SVG Version: 6.00 Build 0)  -->
<svg version="1.1" id="Layer_1" xmlns="http://www.w3.org/2000/svg" xmlns:xlink="http://www.w3.org/1999/xlink" x="0px" y="0px"
	 viewBox="0 0 286 61" style="enable-background:new 0 0 286 61;" xml:space="preserve">
<style type="text/css">
	.st0{fill:#FFFFFF;}
	.st1{fill:#3DAE2B;}
</style>
<rect y="31.5" class="st0" width="190.2" height="12"/>
<rect y="17.1" class="st0" width="286" height="12"/>
<g>
	<path class="st1" d="M61.8,26.1v2h-7.1V18h7v2H57v2h4v1.9h-4v2.1H61.8z"/>
	<path class="st1" d="M66.3,22.4v5.8h-2.3V18h1.8l4.7,5.9V18h2.3v10.1h-1.9L66.3,22.4z"/>
	<path class="st1" d="M76.9,18l2.4,7.2l2.3-7.2H84l-3.8,10.1h-1.9L74.4,18H76.9z"/>
	<path class="st1" d="M85.7,28.1V18H88v10.1H85.7z"/>
	<path class="st1" d="M90.7,28.1V18h4.5c0.5,0,0.9,0.1,1.3,0.3c0.4,0.2,0.8,0.5,1,0.8c0.3,0.3,0.5,0.7,0.7,1.1
		c0.2,0.4,0.2,0.8,0.2,1.2c0,0.3,0,0.6-0.1,0.9c-0.1,0.3-0.2,0.6-0.3,0.8c-0.1,0.3-0.3,0.5-0.5,0.7s-0.4,0.4-0.7,0.5l2.3,3.7h-2.6
		l-2-3.3H93v3.3L90.7,28.1L90.7,28.1z M93,22.8h2.1c0.3,0,0.5-0.1,0.7-0.4s0.3-0.6,0.3-1s-0.1-0.8-0.3-1c-0.2-0.2-0.5-0.4-0.7-0.4
		H93L93,22.8L93,22.8z"/>
	<path class="st1" d="M105.1,28.2c-0.7,0-1.4-0.1-2-0.4c-0.6-0.3-1.1-0.7-1.5-1.2s-0.8-1-1-1.6c-0.2-0.6-0.3-1.2-0.3-1.9
		c0-0.7,0.1-1.3,0.4-1.9c0.2-0.6,0.6-1.2,1-1.6c0.4-0.5,0.9-0.8,1.5-1.1c0.6-0.3,1.2-0.4,1.9-0.4c0.7,0,1.4,0.1,2,0.4
		c0.6,0.3,1.1,0.7,1.5,1.2c0.4,0.5,0.7,1,1,1.6c0.2,0.6,0.3,1.2,0.3,1.9c0,0.7-0.1,1.3-0.4,1.9c-0.2,0.6-0.6,1.2-1,1.6
		c-0.4,0.5-0.9,0.8-1.5,1.1C106.5,28.1,105.8,28.2,105.1,28.2z M102.7,23.1c0,0.4,0.1,0.8,0.2,1.1c0.1,0.4,0.3,0.7,0.5,1
		c0.2,0.3,0.5,0.5,0.8,0.7c0.3,0.2,0.7,0.3,1.1,0.3c0.4,0,0.8-0.1,1.1-0.3s0.6-0.4,0.8-0.7c0.2-0.3,0.4-0.6,0.5-1
		c0.1-0.4,0.1-0.7,0.1-1.1c0-0.4-0.1-0.8-0.2-1.1c-0.1-0.4-0.3-0.7-0.5-1s-0.5-0.5-0.8-0.7c-0.3-0.2-0.7-0.2-1-0.2
		c-0.4,0-0.8,0.1-1.1,0.3s-0.6,0.4-0.8,0.7c-0.2,0.3-0.4,0.6-0.5,1C102.7,22.4,102.7,22.7,102.7,23.1z"/>
	<path class="st1" d="M114.3,22.4v5.8H112V18h1.8l4.7,5.9V18h2.3v10.1H119L114.3,22.4z"/>
	<path class="st1" d="M131.5,28.1v-6l-2.2,4.4H128l-2.2-4.4v6h-2.3V18h2.5l2.6,5.3l2.6-5.3h2.5v10.1H131.5z"/>
	<path class="st1" d="M143.5,26.1v2h-7.1V18h7v2h-4.6v2h4v1.9h-4v2.1H143.5z"/>
	<path class="st1" d="M148,22.4v5.8h-2.3V18h1.8l4.7,5.9V18h2.3v10.1h-1.9L148,22.4z"/>
	<path class="st1" d="M164.9,20.1h-3.1v8h-2.3v-8h-3.1v-2h8.5V20.1z"/>
	<path class="st1" d="M164.8,28.1l3.9-10.1h1.9l3.9,10.1H172l-0.8-2.3h-3.1l-0.8,2.3H164.8z M169.6,20.5l-1.2,3.7h2.4L169.6,20.5z"
		/>
	<path class="st1" d="M176.1,28.1V18h2.3v8h4.9v2L176.1,28.1L176.1,28.1z"/>
	<path class="st1" d="M185.2,28.1V18h2.3v8h4.9v2L185.2,28.1L185.2,28.1z"/>
	<path class="st1" d="M194.3,18l2.2,4.6l2.2-4.6h2.5l-3.6,6.6v3.4h-2.3v-3.5l-3.5-6.6C191.8,18,194.3,18,194.3,18z"/>
	<path class="st1" d="M206.2,28.1V18h6.8v2h-4.5v2.2h3.7v1.9h-3.7v4L206.2,28.1L206.2,28.1z"/>
	<path class="st1" d="M215,28.1V18h4.5c0.5,0,0.9,0.1,1.3,0.3c0.4,0.2,0.8,0.5,1,0.8c0.3,0.3,0.5,0.7,0.7,1.1
		c0.2,0.4,0.2,0.8,0.2,1.2c0,0.3,0,0.6-0.1,0.9c-0.1,0.3-0.2,0.6-0.3,0.8c-0.1,0.3-0.3,0.5-0.5,0.7s-0.4,0.4-0.7,0.5l2.3,3.7h-2.6
		l-2-3.3h-1.5v3.3L215,28.1L215,28.1z M217.3,22.8h2.1c0.3,0,0.5-0.1,0.7-0.4c0.2-0.3,0.3-0.6,0.3-1s-0.1-0.8-0.3-1
		c-0.2-0.2-0.5-0.4-0.7-0.4h-2.1L217.3,22.8L217.3,22.8z"/>
	<path class="st1" d="M225.4,28.1V18h2.3v10.1H225.4z"/>
	<path class="st1" d="M237.4,26.1v2h-7.1V18h7v2h-4.6v2h4v1.9h-4v2.1H237.4z"/>
	<path class="st1" d="M241.9,22.4v5.8h-2.3V18h1.8l4.7,5.9V18h2.3v10.1h-1.9L241.9,22.4z"/>
	<path class="st1" d="M251.1,28.1V18h3.8c0.8,0,1.6,0.1,2.2,0.4s1.1,0.6,1.6,1.1c0.4,0.5,0.7,1,1,1.6c0.2,0.6,0.3,1.3,0.3,2
		c0,0.8-0.1,1.5-0.4,2.1c-0.2,0.6-0.6,1.1-1,1.6c-0.4,0.4-1,0.8-1.6,1c-0.6,0.2-1.3,0.4-2.1,0.4C254.8,28.1,251.1,28.1,251.1,28.1z
		 M257.5,23.1c0-0.4-0.1-0.9-0.2-1.2c-0.1-0.4-0.3-0.7-0.5-0.9c-0.2-0.3-0.5-0.5-0.8-0.6c-0.3-0.1-0.7-0.2-1.1-0.2h-1.4v6h1.4
		c0.4,0,0.8-0.1,1.1-0.2c0.3-0.2,0.6-0.4,0.8-0.6c0.2-0.3,0.4-0.6,0.5-1C257.4,23.9,257.5,23.5,257.5,23.1z"/>
	<path class="st1" d="M261.9,28.1V18h2.3v8h4.9v2L261.9,28.1L261.9,28.1z"/>
	<path class="st1" d="M271.1,18l2.2,4.6l2.2-4.6h2.5l-3.6,6.6v3.4h-2.3v-3.5l-3.5-6.6C268.6,18,271.1,18,271.1,18z"/>
</g>
<g>
	<path class="st1" d="M63,40c0,0.4-0.1,0.8-0.3,1.1c-0.2,0.3-0.4,0.6-0.7,0.8c-0.3,0.2-0.7,0.4-1.1,0.5c-0.4,0.1-0.9,0.2-1.3,0.2
		h-4.9V32.5h5.6c0.4,0,0.7,0.1,1,0.2c0.3,0.2,0.5,0.3,0.7,0.6c0.2,0.2,0.4,0.5,0.5,0.8c0.1,0.3,0.2,0.6,0.2,0.9
		c0,0.5-0.1,0.9-0.4,1.4c-0.2,0.4-0.6,0.8-1.1,1c0.6,0.2,1,0.5,1.4,0.9C62.9,38.8,63,39.3,63,40z M57,34.5v2.1h2.3
		c0.3,0,0.5-0.1,0.7-0.3c0.2-0.2,0.3-0.4,0.3-0.8c0-0.3-0.1-0.6-0.3-0.8c-0.2-0.2-0.4-0.3-0.6-0.3H57z M60.6,39.5
		c0-0.3-0.1-0.6-0.3-0.8c-0.2-0.2-0.4-0.3-0.7-0.3H57v2.2h2.6c0.3,0,0.6-0.1,0.8-0.3C60.6,40.1,60.6,39.9,60.6,39.5z"/>
	<path class="st1" d="M65.1,42.6V32.5h2.3v10.1L65.1,42.6L65.1,42.6z"/>
	<path class="st1" d="M74.3,42.7c-0.7,0-1.4-0.1-2-0.4c-0.6-0.3-1.1-0.7-1.5-1.2s-0.8-1-1-1.6c-0.2-0.6-0.3-1.2-0.3-1.9
		c0-0.7,0.1-1.3,0.4-1.9c0.2-0.6,0.6-1.2,1-1.6c0.4-0.5,0.9-0.8,1.5-1.1c0.6-0.3,1.2-0.4,1.9-0.4c0.7,0,1.4,0.1,2,0.4
		c0.6,0.3,1.1,0.7,1.5,1.2c0.4,0.5,0.7,1,1,1.6c0.2,0.6,0.3,1.2,0.3,1.9c0,0.7-0.1,1.3-0.4,1.9c-0.2,0.6-0.6,1.2-1,1.6
		c-0.4,0.5-0.9,0.8-1.5,1.1C75.7,42.5,75,42.7,74.3,42.7z M71.9,37.6c0,0.4,0.1,0.8,0.2,1.1c0.1,0.4,0.3,0.7,0.5,1
		c0.2,0.3,0.5,0.5,0.8,0.7c0.3,0.2,0.7,0.3,1.1,0.3c0.4,0,0.8-0.1,1.1-0.3s0.6-0.4,0.8-0.7c0.2-0.3,0.4-0.6,0.5-1
		c0.1-0.4,0.1-0.7,0.1-1.1c0-0.4-0.1-0.8-0.2-1.1c-0.1-0.4-0.3-0.7-0.5-1c-0.2-0.3-0.5-0.5-0.8-0.7c-0.3-0.2-0.7-0.2-1-0.2
		c-0.4,0-0.8,0.1-1.1,0.3c-0.3,0.2-0.6,0.4-0.8,0.7c-0.2,0.3-0.4,0.6-0.5,1C71.9,36.8,71.9,37.2,71.9,37.6z"/>
	<path class="st1" d="M88.6,34.5h-3.1v8h-2.3v-8h-3.1v-2h8.5V34.5z"/>
	<path class="st1" d="M97.6,40.5v2h-7.1V32.5h7v2h-4.6v2h4v1.9h-4v2.1C92.8,40.5,97.6,40.5,97.6,40.5z"/>
	<path class="st1" d="M99.1,37.5c0-0.6,0.1-1.2,0.3-1.8c0.2-0.6,0.5-1.1,1-1.6s0.9-0.9,1.5-1.1s1.3-0.4,2.1-0.4
		c0.9,0,1.7,0.2,2.3,0.6s1.2,0.9,1.5,1.6l-1.8,1.2c-0.1-0.3-0.2-0.5-0.4-0.7c-0.2-0.2-0.3-0.3-0.5-0.4c-0.2-0.1-0.4-0.2-0.6-0.2
		s-0.4-0.1-0.6-0.1c-0.4,0-0.8,0.1-1.1,0.3c-0.3,0.2-0.6,0.4-0.8,0.7c-0.2,0.3-0.3,0.6-0.4,1c-0.1,0.4-0.1,0.7-0.1,1.1
		c0,0.4,0.1,0.8,0.2,1.1c0.1,0.4,0.3,0.7,0.5,1c0.2,0.3,0.5,0.5,0.8,0.7c0.3,0.2,0.6,0.2,1,0.2c0.2,0,0.4,0,0.6-0.1s0.4-0.1,0.6-0.2
		c0.2-0.1,0.4-0.3,0.5-0.4s0.3-0.4,0.4-0.6l1.9,1.1c-0.2,0.4-0.4,0.7-0.7,1c-0.3,0.3-0.6,0.5-1,0.7c-0.4,0.2-0.8,0.4-1.2,0.5
		c-0.4,0.1-0.8,0.2-1.2,0.2c-0.7,0-1.3-0.1-1.9-0.4c-0.6-0.3-1.1-0.7-1.5-1.2c-0.4-0.5-0.8-1.1-1-1.7C99.3,38.7,99.1,38.1,99.1,37.5
		z"/>
	<path class="st1" d="M118.5,32.5v10.1h-2.3v-4.1h-4v4.1h-2.3V32.5h2.3v3.9h4v-3.9H118.5z"/>
	<path class="st1" d="M123.5,36.8v5.8h-2.3V32.5h1.8l4.7,5.9v-5.9h2.3v10.1h-1.9L123.5,36.8z"/>
	<path class="st1" d="M136.9,42.7c-0.7,0-1.4-0.1-2-0.4c-0.6-0.3-1.1-0.7-1.5-1.2s-0.8-1-1-1.6c-0.2-0.6-0.3-1.2-0.3-1.9
		c0-0.7,0.1-1.3,0.4-1.9c0.2-0.6,0.6-1.2,1-1.6c0.4-0.5,0.9-0.8,1.5-1.1c0.6-0.3,1.2-0.4,1.9-0.4c0.7,0,1.4,0.1,2,0.4
		c0.6,0.3,1.1,0.7,1.5,1.2s0.7,1,1,1.6c0.2,0.6,0.3,1.2,0.3,1.9c0,0.7-0.1,1.3-0.4,1.9c-0.2,0.6-0.6,1.2-1,1.6s-0.9,0.8-1.5,1.1
		C138.2,42.5,137.6,42.7,136.9,42.7z M134.5,37.6c0,0.4,0.1,0.8,0.2,1.1c0.1,0.4,0.3,0.7,0.5,1c0.2,0.3,0.5,0.5,0.8,0.7
		s0.7,0.3,1.1,0.3c0.4,0,0.8-0.1,1.1-0.3s0.6-0.4,0.8-0.7s0.4-0.6,0.5-1c0.1-0.4,0.1-0.7,0.1-1.1c0-0.4-0.1-0.8-0.2-1.1
		c-0.1-0.4-0.3-0.7-0.5-1c-0.2-0.3-0.5-0.5-0.8-0.7c-0.3-0.2-0.7-0.2-1-0.2c-0.4,0-0.8,0.1-1.1,0.3c-0.3,0.2-0.6,0.4-0.8,0.7
		c-0.2,0.3-0.4,0.6-0.5,1S134.5,37.2,134.5,37.6z"/>
	<path class="st1" d="M143.8,42.6V32.5h2.3v8h4.9v2L143.8,42.6L143.8,42.6z"/>
	<path class="st1" d="M156.8,42.7c-0.7,0-1.4-0.1-2-0.4c-0.6-0.3-1.1-0.7-1.5-1.2s-0.8-1-1-1.6c-0.2-0.6-0.3-1.2-0.3-1.9
		c0-0.7,0.1-1.3,0.4-1.9c0.2-0.6,0.6-1.2,1-1.6c0.4-0.5,0.9-0.8,1.5-1.1c0.6-0.3,1.2-0.4,1.9-0.4c0.7,0,1.4,0.1,2,0.4
		c0.6,0.3,1.1,0.7,1.5,1.2s0.7,1,1,1.6c0.2,0.6,0.3,1.2,0.3,1.9c0,0.7-0.1,1.3-0.4,1.9c-0.2,0.6-0.6,1.2-1,1.6s-0.9,0.8-1.5,1.1
		C158.1,42.5,157.5,42.7,156.8,42.7z M154.4,37.6c0,0.4,0.1,0.8,0.2,1.1c0.1,0.4,0.3,0.7,0.5,1c0.2,0.3,0.5,0.5,0.8,0.7
		s0.7,0.3,1.1,0.3c0.4,0,0.8-0.1,1.1-0.3s0.6-0.4,0.8-0.7c0.2-0.3,0.4-0.6,0.5-1s0.1-0.7,0.1-1.1c0-0.4-0.1-0.8-0.2-1.1
		c-0.1-0.4-0.3-0.7-0.5-1c-0.2-0.3-0.5-0.5-0.8-0.7c-0.3-0.2-0.7-0.2-1-0.2c-0.4,0-0.8,0.1-1.1,0.3s-0.6,0.4-0.8,0.7
		c-0.2,0.3-0.4,0.6-0.5,1C154.4,36.8,154.4,37.2,154.4,37.6z"/>
	<path class="st1" d="M170.2,41.6c-0.4,0.4-0.7,0.6-1.1,0.8c-0.4,0.2-0.8,0.3-1.3,0.3c-0.6,0-1.2-0.1-1.8-0.4
		c-0.6-0.3-1.1-0.7-1.5-1.1s-0.8-1-1-1.7c-0.2-0.6-0.4-1.3-0.4-2c0-0.7,0.1-1.3,0.4-2c0.2-0.6,0.6-1.1,1-1.6c0.4-0.5,1-0.8,1.5-1.1
		c0.6-0.3,1.2-0.4,1.9-0.4c0.9,0,1.7,0.2,2.3,0.6s1.2,0.9,1.5,1.6l-1.7,1.3c-0.2-0.5-0.5-0.8-0.9-1.1c-0.4-0.3-0.8-0.4-1.3-0.4
		c-0.4,0-0.7,0.1-1,0.2c-0.3,0.2-0.5,0.4-0.8,0.7c-0.2,0.3-0.4,0.6-0.5,1c-0.1,0.4-0.2,0.8-0.2,1.2c0,0.4,0.1,0.8,0.2,1.2
		s0.3,0.7,0.5,1c0.2,0.3,0.5,0.5,0.8,0.6c0.3,0.1,0.6,0.2,1,0.2c0.4,0,0.8-0.1,1.2-0.3c0.4-0.2,0.7-0.5,1.1-0.9V39h-1.9v-1.7h3.9
		v5.3h-1.9V41.6z"/>
	<path class="st1" d="M175.4,32.5l2.2,4.6l2.2-4.6h2.5l-3.6,6.6v3.4h-2.3v-3.5l-3.5-6.6H175.4z"/>
</g>
<g>
	<path class="st1" d="M22.6,15.4c0.6-3.8,1.9-6.2,3.8-7.1c0,0,0,0,0,0c-0.1,0-0.1,0-0.2,0c-1.6,0-3.1,1-3.9,2.5
		c-0.6,1.1-0.8,2-0.6,2.8C21.7,14.3,22,14.9,22.6,15.4z"/>
	<path class="st1" d="M8.6,41.8C8.6,41.8,8.6,41.8,8.6,41.8c0,0.1,0.1,0.2,0.1,0.2c0.8,1.4,2.4,2.2,4.1,2.1c1.2,0,2.1-0.3,2.8-0.9
		c0.5-0.4,0.8-1,1-1.7C13.1,42.9,10.3,43,8.6,41.8z"/>
	<path class="st1" d="M46.4,35.8c-0.6-1-1.3-1.7-2.1-2c-0.6-0.2-1.3-0.3-2-0.1c2.9,2.4,4.4,4.8,4.2,6.9c0,0,0,0,0,0
		c0,0,0.1-0.1,0.1-0.1C47.4,39,47.3,37.3,46.4,35.8z"/>
	<path class="st1" d="M37.6,30.3c6.2-4.6,9.8-9,8.6-11.1c-1.2-2.1-6.8-1.1-13.9,2c-0.3-1.5-0.7-2.8-1.1-3.9c0.3,1.2,0.5,2.6,0.6,4.1
		c-1.4,0.7-3,1.4-4.5,2.2c-1.5-0.8-2.9-1.5-4.3-2.2c0.2-2,0.4-3.9,0.8-5.5c0.8-0.1,1.6-0.5,2.1-1.2c0.4-0.7,0.6-1.5,0.6-2.4
		c1.6,0.4,3,1.6,3.7,2.8c-0.5-2.1-1.8-4-3.5-5c0.1-0.2,0.2-0.4,0.3-0.6c1.9,1.1,3.3,3.1,3.8,5.3c0-2.2-0.5-5-2.5-6h0
		c-0.1,0-0.2-0.1-0.2-0.1l0,0c0,0-0.1,0-0.1,0c0,0-0.1,0-0.1-0.1c-0.2-0.1-0.4-0.1-0.6-0.2c-0.1,0-0.2,0.1-0.3,0.1
		c-2.1,0.8-3.9,5.7-4.8,12.5c-7-3-12.6-3.9-13.8-1.9c-1.2,2.1,2.5,6.4,8.7,11c-1.2,1-2.1,1.9-2.8,2.8c0.9-0.8,2-1.6,3.3-2.5
		c1.3,1,2.7,1.9,4.2,2.9c0.1,1.6,0.2,3.2,0.3,4.7c-1.9,0.9-3.7,1.6-5.3,2.1c-0.5-0.7-1.2-1.1-2.1-1.2c-0.8,0-1.6,0.2-2.4,0.7
		c-0.5-1.5-0.1-3.4,0.6-4.6c-1.6,1.5-2.6,3.5-2.6,5.6c-0.2,0-0.5,0-0.7,0c0-2.2,1.1-4.4,2.7-6c-2,1.1-4.1,2.9-4,5.1l0,0
		c0,0.1,0,0.2,0,0.2l0,0c0,0,0,0.1,0,0.1c0,0.1,0,0.1,0,0.2c0,0.2,0.1,0.4,0.2,0.6c0.1,0.1,0.2,0.1,0.2,0.2
		c1.8,1.5,6.9,0.6,13.3-2.1c0.9,7.6,3,13,5.4,13c2.4,0,4.3-5.3,5.1-13c1.4,0.5,2.7,0.8,3.8,1c-1.1-0.4-2.4-0.9-3.7-1.5
		c0.2-1.6,0.3-3.3,0.3-5.1c1.4-0.9,2.7-1.7,3.9-2.6c1.7,1.2,3.2,2.4,4.4,3.5c-0.3,0.7-0.4,1.6,0,2.4c0.3,0.7,1,1.3,1.8,1.8
		c-1.1,1.2-2.9,1.8-4.3,1.8c2.1,0.6,4.3,0.5,6.1-0.5c0.1,0.2,0.3,0.4,0.3,0.6c-1.9,1.1-4.3,1.3-6.5,0.6c1.9,1.2,4.6,2.1,6.4,0.9l0,0
		c0.1-0.1,0.1-0.1,0.2-0.1l0,0c0,0,0,0,0.1-0.1c0,0,0.1-0.1,0.1-0.1c0.2-0.1,0.3-0.3,0.5-0.5c0-0.1,0-0.2,0-0.3
		C46.4,38.6,43,34.5,37.6,30.3z M43.8,20.6c0.9,1.6-2.1,5.1-7.2,8.9c-1.2-0.9-2.4-1.7-3.7-2.6c-0.1-1.8-0.2-3.3-0.4-4.6
		C38.4,19.9,42.9,19,43.8,20.6z M31.8,22.6c0.1,1.2,0.1,2.4,0.2,3.8c-0.6-0.4-1.3-0.8-2-1.2c-0.6-0.3-1.1-0.7-1.7-1
		C29.5,23.6,30.7,23.1,31.8,22.6z M32,28.9c0,1.3,0,2.6-0.1,3.8c-1.1,0.7-2.3,1.4-3.5,2.1c-0.5,0.3-0.9,0.5-1.4,0.8
		c-0.4-0.2-0.7-0.4-1.1-0.7c-1.1-0.7-2.2-1.3-3.2-2c-0.1-1.3-0.1-2.7-0.1-4.1c0-0.6,0-1.1,0-1.6c0.4-0.2,0.8-0.4,1.1-0.7
		c1.1-0.6,2.2-1.2,3.3-1.8c1.2,0.6,2.4,1.3,3.6,2c0.5,0.3,0.9,0.5,1.4,0.8C32,28.1,32,28.5,32,28.9z M26,24.3
		c-0.5,0.3-1,0.6-1.5,0.9c-0.7,0.4-1.3,0.7-1.8,1.1c0-1.2,0.1-2.4,0.2-3.5C23.8,23.2,24.9,23.8,26,24.3z M10.6,20.6
		c0.9-1.6,5.4-0.7,11.3,1.8c-0.2,1.4-0.3,3-0.3,4.5c-1.5,1-2.7,1.8-3.8,2.7C12.7,25.7,9.7,22.2,10.6,20.6z M18.3,30
		c1-0.7,2.1-1.3,3.2-2c0,0.8,0,1.6,0,2.4c0,0.7,0,1.3,0,1.9C20.4,31.5,19.3,30.7,18.3,30z M22.7,34.2c0.5,0.3,1,0.6,1.5,0.9
		c0.6,0.4,1.2,0.7,1.8,1.1c-1,0.5-2,1-3,1.5C22.9,36.6,22.8,35.4,22.7,34.2z M27.4,49.4c-1.8,0-3.4-4.3-4.2-10.7
		c1.3-0.6,2.6-1.2,4-1.9c1.6,0.9,3,1.5,4.3,2C30.7,45.1,29.2,49.4,27.4,49.4z M31.5,38.1c-1.1-0.5-2.2-1.2-3.4-1.8
		c0.7-0.4,1.4-0.7,2.1-1.1c0.6-0.3,1.2-0.7,1.7-1C31.8,35.5,31.7,36.8,31.5,38.1z M32.9,32.1c0-0.6,0-1.2,0-1.8c0-0.7,0-1.4,0-2.1
		c1,0.6,2,1.3,2.9,1.9C34.9,30.8,33.9,31.4,32.9,32.1z"/>
</g>
<rect x="307.4" y="32.5" class="st1" width="90.9" height="10"/>
<rect x="304.8" y="18" class="st1" width="90.9" height="10"/>
</svg>
